<svg id="visual" viewBox="0 0 900 600" width="900" height="600" xmlns="http://www.w3.org/2000/svg" xmlns:xlink="http://www.w3.org/1999/xlink" version="1.1"><path d="M0 181L13.7 186C27.3 191 54.7 201 82 206C109.3 211 136.7 211 163.8 208C191 205 218 199 245.2 188C272.3 177 299.7 161 327 169C354.3 177 381.7 209 409 219C436.3 229 463.7 217 491 206C518.3 195 545.7 185 573 183C600.3 181 627.7 187 654.8 174C682 161 709 129 736.2 114C763.3 99 790.7 101 818 98C845.3 95 872.7 87 886.3 83L900 79L900 0L886.3 0C872.7 0 845.3 0 818 0C790.7 0 763.3 0 736.2 0C709 0 682 0 654.8 0C627.7 0 600.3 0 573 0C545.7 0 518.3 0 491 0C463.7 0 436.3 0 409 0C381.7 0 354.3 0 327 0C299.7 0 272.3 0 245.2 0C218 0 191 0 163.8 0C136.7 0 109.3 0 82 0C54.7 0 27.3 0 13.7 0L0 0Z" fill="#81faee"></path><path d="M0 247L13.7 256C27.3 265 54.7 283 82 294C109.3 305 136.7 309 163.8 298C191 287 218 261 245.2 247C272.3 233 299.7 231 327 248C354.3 265 381.7 301 409 308C436.3 315 463.7 293 491 279C518.3 265 545.7 259 573 259C600.3 259 627.7 265 654.8 256C682 247 709 223 736.2 211C763.3 199 790.7 199 818 199C845.3 199 872.7 199 886.3 199L900 199L900 77L886.3 81C872.7 85 845.3 93 818 96C790.7 99 763.3 97 736.2 112C709 127 682 159 654.8 172C627.7 185 600.3 179 573 181C545.7 183 518.3 193 491 204C463.7 215 436.3 227 409 217C381.7 207 354.3 175 327 167C299.7 159 272.3 175 245.2 186C218 197 191 203 163.8 206C136.7 209 109.3 209 82 204C54.7 199 27.3 189 13.7 184L0 179Z" fill="#5bf9e8"></path><path d="M0 337L13.7 337C27.3 337 54.7 337 82 340C109.3 343 136.7 349 163.8 346C191 343 218 331 245.2 320C272.3 309 299.7 299 327 311C354.3 323 381.7 357 409 360C436.3 363 463.7 335 491 323C518.3 311 545.7 315 573 321C600.3 327 627.7 335 654.8 323C682 311 709 279 736.2 267C763.3 255 790.7 263 818 263C845.3 263 872.7 255 886.3 251L900 247L900 197L886.3 197C872.7 197 845.3 197 818 197C790.7 197 763.3 197 736.2 209C709 221 682 245 654.8 254C627.7 263 600.3 257 573 257C545.7 257 518.3 263 491 277C463.7 291 436.3 313 409 306C381.7 299 354.3 263 327 246C299.7 229 272.3 231 245.2 245C218 259 191 285 163.8 296C136.7 307 109.3 303 82 292C54.7 281 27.3 263 13.7 254L0 245Z" fill="#0cf7e2"></path><path d="M0 487L13.7 492C27.3 497 54.7 507 82 515C109.3 523 136.7 529 163.8 520C191 511 218 487 245.2 485C272.3 483 299.7 503 327 510C354.3 517 381.7 511 409 494C436.3 477 463.7 449 491 442C518.3 435 545.7 449 573 453C600.3 457 627.7 451 654.8 458C682 465 709 485 736.2 486C763.3 487 790.7 469 818 466C845.3 463 872.7 475 886.3 481L900 487L900 245L886.3 249C872.7 253 845.3 261 818 261C790.7 261 763.3 253 736.2 265C709 277 682 309 654.8 321C627.7 333 600.3 325 573 319C545.7 313 518.3 309 491 321C463.7 333 436.3 361 409 358C381.7 355 354.3 321 327 309C299.7 297 272.3 307 245.2 318C218 329 191 341 163.8 344C136.7 347 109.3 341 82 338C54.7 335 27.3 335 13.7 335L0 335Z" fill="#0ad6c4"></path><path d="M0 601L13.7 601C27.3 601 54.7 601 82 601C109.3 601 136.7 601 163.8 601C191 601 218 601 245.2 601C272.3 601 299.7 601 327 601C354.3 601 381.7 601 409 601C436.3 601 463.7 601 491 601C518.3 601 545.7 601 573 601C600.3 601 627.7 601 654.8 601C682 601 709 601 736.2 601C763.3 601 790.7 601 818 601C845.3 601 872.7 601 886.3 601L900 601L900 485L886.3 479C872.7 473 845.3 461 818 464C790.7 467 763.3 485 736.2 484C709 483 682 463 654.8 456C627.7 449 600.3 455 573 451C545.7 447 518.3 433 491 440C463.7 447 436.3 475 409 492C381.7 509 354.3 515 327 508C299.7 501 272.3 481 245.2 483C218 485 191 509 163.8 518C136.7 527 109.3 521 82 513C54.7 505 27.3 495 13.7 490L0 485Z" fill="#08b5a6"></path></svg>